<mxfile host="app.diagrams.net" modified="2020-09-21T17:51:43.578Z" agent="5.0 (Windows NT 10.0; Win64; x64) AppleWebKit/537.36 (KHTML, like Gecko) Chrome/85.0.4183.102 Safari/537.36" etag="ek8jdhAYz6NdMcCwcJ9C" version="13.6.9" type="github">
  <diagram id="XDqysnPsIPxP3DxXyJQr" name="Page-1">
    <mxGraphModel dx="1422" dy="745" grid="1" gridSize="10" guides="1" tooltips="1" connect="1" arrows="1" fold="1" page="1" pageScale="1" pageWidth="827" pageHeight="1169" math="0" shadow="0">
      <root>
        <mxCell id="0" />
        <mxCell id="1" parent="0" />
        <mxCell id="q3ZPz475CJZGtmEZzmSi-3" value="" style="edgeStyle=orthogonalEdgeStyle;rounded=0;orthogonalLoop=1;jettySize=auto;html=1;" edge="1" parent="1" source="q3ZPz475CJZGtmEZzmSi-1" target="q3ZPz475CJZGtmEZzmSi-2">
          <mxGeometry relative="1" as="geometry" />
        </mxCell>
        <mxCell id="q3ZPz475CJZGtmEZzmSi-1" value="&lt;font style=&quot;font-size: 15px&quot;&gt;master 持有&lt;br&gt;chunk version&lt;/font&gt;" style="ellipse;whiteSpace=wrap;html=1;" vertex="1" parent="1">
          <mxGeometry x="140" y="50" width="120" height="80" as="geometry" />
        </mxCell>
        <mxCell id="q3ZPz475CJZGtmEZzmSi-9" value="" style="edgeStyle=orthogonalEdgeStyle;rounded=0;orthogonalLoop=1;jettySize=auto;html=1;" edge="1" parent="1" source="q3ZPz475CJZGtmEZzmSi-2" target="q3ZPz475CJZGtmEZzmSi-8">
          <mxGeometry relative="1" as="geometry" />
        </mxCell>
        <mxCell id="q3ZPz475CJZGtmEZzmSi-2" value="&lt;font style=&quot;font-size: 15px&quot;&gt;授予 chunk&lt;br&gt;新租约&lt;/font&gt;" style="ellipse;whiteSpace=wrap;html=1;" vertex="1" parent="1">
          <mxGeometry x="140" y="180" width="120" height="80" as="geometry" />
        </mxCell>
        <mxCell id="q3ZPz475CJZGtmEZzmSi-4" value="&lt;font style=&quot;font-size: 15px&quot;&gt;增加 chunk version&lt;/font&gt;" style="text;html=1;align=center;verticalAlign=middle;resizable=0;points=[];autosize=1;" vertex="1" parent="1">
          <mxGeometry x="207" y="140" width="140" height="20" as="geometry" />
        </mxCell>
        <mxCell id="q3ZPz475CJZGtmEZzmSi-8" value="&lt;font style=&quot;font-size: 15px&quot;&gt;检测 chunk&lt;br&gt;version&lt;/font&gt;" style="rhombus;whiteSpace=wrap;html=1;" vertex="1" parent="1">
          <mxGeometry x="147.5" y="300" width="105" height="90" as="geometry" />
        </mxCell>
        <mxCell id="q3ZPz475CJZGtmEZzmSi-10" value="&lt;font style=&quot;font-size: 15px&quot;&gt;master 更新自身 chunk version&lt;/font&gt;" style="ellipse;whiteSpace=wrap;html=1;" vertex="1" parent="1">
          <mxGeometry x="63" y="450" width="120" height="80" as="geometry" />
        </mxCell>
        <mxCell id="q3ZPz475CJZGtmEZzmSi-13" value="&lt;font style=&quot;font-size: 15px&quot;&gt;master 忽略旧的chunk 副本&lt;br&gt;&lt;/font&gt;" style="ellipse;whiteSpace=wrap;html=1;" vertex="1" parent="1">
          <mxGeometry x="217" y="452" width="120" height="80" as="geometry" />
        </mxCell>
        <mxCell id="q3ZPz475CJZGtmEZzmSi-18" value="" style="endArrow=none;html=1;exitX=0.5;exitY=1;exitDx=0;exitDy=0;" edge="1" parent="1" source="q3ZPz475CJZGtmEZzmSi-8">
          <mxGeometry width="50" height="50" relative="1" as="geometry">
            <mxPoint x="390" y="370" as="sourcePoint" />
            <mxPoint x="200" y="410" as="targetPoint" />
          </mxGeometry>
        </mxCell>
        <mxCell id="q3ZPz475CJZGtmEZzmSi-19" value="&lt;font style=&quot;font-size: 15px&quot;&gt;大于master&lt;br&gt;record verion&lt;br&gt;&lt;/font&gt;" style="text;html=1;align=center;verticalAlign=middle;resizable=0;points=[];autosize=1;" vertex="1" parent="1">
          <mxGeometry x="80" y="370" width="100" height="40" as="geometry" />
        </mxCell>
        <mxCell id="q3ZPz475CJZGtmEZzmSi-21" value="&lt;font style=&quot;font-size: 15px&quot;&gt;小于master&lt;br&gt;record verion&lt;br&gt;&lt;/font&gt;" style="text;html=1;align=center;verticalAlign=middle;resizable=0;points=[];autosize=1;" vertex="1" parent="1">
          <mxGeometry x="240" y="370" width="100" height="40" as="geometry" />
        </mxCell>
        <mxCell id="q3ZPz475CJZGtmEZzmSi-23" value="" style="endArrow=none;html=1;exitX=0.5;exitY=1;exitDx=0;exitDy=0;" edge="1" parent="1">
          <mxGeometry width="50" height="50" relative="1" as="geometry">
            <mxPoint x="279" y="532" as="sourcePoint" />
            <mxPoint x="279" y="565" as="targetPoint" />
          </mxGeometry>
        </mxCell>
        <mxCell id="q3ZPz475CJZGtmEZzmSi-24" value="" style="endArrow=none;html=1;exitX=0.5;exitY=1;exitDx=0;exitDy=0;" edge="1" parent="1">
          <mxGeometry width="50" height="50" relative="1" as="geometry">
            <mxPoint x="120.5" y="530" as="sourcePoint" />
            <mxPoint x="120.5" y="563" as="targetPoint" />
          </mxGeometry>
        </mxCell>
        <mxCell id="q3ZPz475CJZGtmEZzmSi-25" value="" style="endArrow=none;html=1;" edge="1" parent="1">
          <mxGeometry width="50" height="50" relative="1" as="geometry">
            <mxPoint x="120" y="410" as="sourcePoint" />
            <mxPoint x="280" y="410" as="targetPoint" />
          </mxGeometry>
        </mxCell>
        <mxCell id="q3ZPz475CJZGtmEZzmSi-26" value="" style="endArrow=classic;html=1;" edge="1" parent="1">
          <mxGeometry width="50" height="50" relative="1" as="geometry">
            <mxPoint x="120" y="410" as="sourcePoint" />
            <mxPoint x="120" y="450" as="targetPoint" />
          </mxGeometry>
        </mxCell>
        <mxCell id="q3ZPz475CJZGtmEZzmSi-28" value="" style="endArrow=classic;html=1;entryX=0.5;entryY=0;entryDx=0;entryDy=0;" edge="1" parent="1">
          <mxGeometry width="50" height="50" relative="1" as="geometry">
            <mxPoint x="279" y="409" as="sourcePoint" />
            <mxPoint x="279" y="452.0000000000001" as="targetPoint" />
          </mxGeometry>
        </mxCell>
        <mxCell id="q3ZPz475CJZGtmEZzmSi-29" value="" style="endArrow=none;html=1;" edge="1" parent="1">
          <mxGeometry width="50" height="50" relative="1" as="geometry">
            <mxPoint x="122" y="564" as="sourcePoint" />
            <mxPoint x="278" y="564" as="targetPoint" />
          </mxGeometry>
        </mxCell>
        <mxCell id="q3ZPz475CJZGtmEZzmSi-30" value="" style="endArrow=classic;html=1;" edge="1" parent="1">
          <mxGeometry width="50" height="50" relative="1" as="geometry">
            <mxPoint x="200" y="563" as="sourcePoint" />
            <mxPoint x="200" y="620" as="targetPoint" />
          </mxGeometry>
        </mxCell>
        <mxCell id="q3ZPz475CJZGtmEZzmSi-31" value="" style="endArrow=none;dashed=1;html=1;dashPattern=1 3;strokeWidth=2;" edge="1" parent="1">
          <mxGeometry width="50" height="50" relative="1" as="geometry">
            <mxPoint x="217" y="600" as="sourcePoint" />
            <mxPoint x="217" y="390" as="targetPoint" />
          </mxGeometry>
        </mxCell>
        <mxCell id="q3ZPz475CJZGtmEZzmSi-32" value="" style="endArrow=none;dashed=1;html=1;dashPattern=1 3;strokeWidth=2;" edge="1" parent="1">
          <mxGeometry width="50" height="50" relative="1" as="geometry">
            <mxPoint x="220" y="390" as="sourcePoint" />
            <mxPoint x="470" y="390" as="targetPoint" />
          </mxGeometry>
        </mxCell>
        <mxCell id="q3ZPz475CJZGtmEZzmSi-33" value="" style="endArrow=none;dashed=1;html=1;dashPattern=1 3;strokeWidth=2;" edge="1" parent="1">
          <mxGeometry width="50" height="50" relative="1" as="geometry">
            <mxPoint x="220" y="600" as="sourcePoint" />
            <mxPoint x="470" y="600" as="targetPoint" />
          </mxGeometry>
        </mxCell>
        <mxCell id="q3ZPz475CJZGtmEZzmSi-34" value="" style="endArrow=none;dashed=1;html=1;dashPattern=1 3;strokeWidth=2;" edge="1" parent="1">
          <mxGeometry width="50" height="50" relative="1" as="geometry">
            <mxPoint x="470" y="600" as="sourcePoint" />
            <mxPoint x="470" y="390" as="targetPoint" />
          </mxGeometry>
        </mxCell>
        <mxCell id="q3ZPz475CJZGtmEZzmSi-35" value="&lt;font style=&quot;font-size: 15px&quot;&gt;垃圾回收&lt;br&gt;删除旧的 &lt;br&gt;chunk 副本&lt;br&gt;&lt;/font&gt;" style="ellipse;whiteSpace=wrap;html=1;" vertex="1" parent="1">
          <mxGeometry x="347" y="410" width="120" height="80" as="geometry" />
        </mxCell>
        <mxCell id="q3ZPz475CJZGtmEZzmSi-36" value="&lt;font style=&quot;font-size: 15px&quot;&gt;返回 Resp 给 Client&lt;/font&gt;" style="ellipse;whiteSpace=wrap;html=1;" vertex="1" parent="1">
          <mxGeometry x="140" y="620" width="120" height="80" as="geometry" />
        </mxCell>
      </root>
    </mxGraphModel>
  </diagram>
</mxfile>
